Coordinates
version=1
nRows=19
nColumns=33
inDegrees=yes

Units are S.I. units (second, meters, Newtons, ...)
Angles are in degrees.

endheader
time	ground_thorax_rot_x	ground_thorax_rot_y	ground_thorax_rot_z	ground_thorax_tx	ground_thorax_ty	ground_thorax_tz	clav_prot_r	clav_elev_r	scapula_abduction_r	scapula_elevation_r	scapula_upward_rot_r	scapula_winging_r	shoulder_elv_r	plane_of_elev_r	axial_rot_r	elbow_flexion_r	pro_sup_r	wrist_flex_r	wrist_dev_r	clav_prot_l	clav_elev_l	scapula_abduction_l	scapula_elevation_l	scapula_upward_rot_l	scapula_winging_l	shoulder_elv_l	plane_of_elev_l	axial_rot_l	elbow_flexion_l	pro_sup_l	wrist_flex_l	wrist_dev_l
      7.96000000	     29.55580348	     28.13384099	     34.05242702	    -83.47506911	    768.65073862	      8.24638321	     14.78629842	     45.00000000	     45.00000000	     41.17860440	     45.00000000	  -3271.97147952	  -1241.04738795	    -90.00000000	    -86.39921114	   2152.88552281	    -98.87825269	     17.57005959	     11.07400090	     11.41355348	    -45.00000000	    -41.36535101	     45.00000000	    -45.00000000	   2249.78954501	  -2091.13178498	     19.19889544	    -57.95847728	   1447.45018765	     28.88367285	      8.16949789	    -18.61665682
      7.97000000	     29.41814520	     28.15091588	     34.27683404	    -81.41607909	    768.40873847	      8.41760571	     14.65583785	     45.00000000	     45.00000000	     40.93024197	     45.00000000	  -3271.83301789	  -1240.77386775	    -90.00000000	    -86.65810261	   2153.02498024	    -98.76369118	     17.44330321	     10.84217054	     11.56675128	    -45.00000000	    -41.40002007	     45.00000000	    -45.00000000	   2249.60928024	  -2091.13982978	     19.08341005	    -58.26155888	   1447.43023983	     29.25830881	      8.07043517	    -18.48000682
      7.98000000	     29.28422491	     28.12847929	     34.38936210	    -79.55835282	    768.26365748	      8.59528267	     14.69180405	     45.00000000	     45.00000000	     40.72150183	     45.00000000	  -3271.81431916	  -1240.81424483	    -90.00000000	    -86.60332170	   2152.89450832	    -98.54299291	     17.52279527	     10.79217778	     11.55254857	    -45.00000000	    -41.50856393	     45.00000000	    -45.00000000	   2249.56993211	  -2091.25525020	     19.22208934	    -57.90364009	   1447.31678423	     29.50739226	      8.02306046	    -18.48360831
      7.99000000	     29.19712178	     28.09999241	     34.53370001	    -77.90514872	    768.20048922	      8.77519909	     14.68524049	     45.00000000	     45.00000000	     40.52840339	     45.00000000	  -3271.77656524	  -1240.82844042	    -90.00000000	    -86.57548952	   2152.75601628	    -98.33821039	     17.51834828	     10.66536644	     11.57682873	    -45.00000000	    -41.50522121	     45.00000000	    -45.00000000	   2249.43515814	  -2091.29872015	     19.23455603	    -57.49752223	   1447.29020098	     29.70862346	      8.02773356	    -18.44680682
      8.00000000	     29.08110200	     28.10342937	     34.63750274	    -76.42825437	    768.20249635	      8.95793865	     14.70027815	     45.00000000	     45.00000000	     40.41835586	     45.00000000	  -3271.78966982	  -1240.83893432	    -90.00000000	    -86.55068579	   2152.71843335	    -98.17559239	     17.60179918	     10.63603863	     11.56741269	    -45.00000000	    -41.62823902	     45.00000000	    -45.00000000	   2249.34222519	  -2091.43378839	     19.32530586	    -57.04742077	   1447.09952603	     29.87505661	      8.04204286	    -18.42012173
      8.01000000	     28.82529749	     28.07787952	     34.91735984	    -75.13232427	    768.25561990	      9.14114309	     14.70711264	     45.00000000	     45.00000000	     40.08609898	     45.00000000	  -3271.72246899	  -1240.79837342	    -90.00000000	    -86.57873092	   2152.69127313	    -98.11614809	     17.55073172	     10.55485412	     11.67706569	    -45.00000000	    -41.62106311	     45.00000000	    -45.00000000	   2249.43087628	  -2091.33967996	     19.39635307	    -56.49773378	   1447.11508907	     29.92520904	      8.02136005	    -18.39306732
      8.02000000	     28.85418992	     28.16635252	     34.88753817	    -73.99678426	    768.34666475	      9.32536503	     14.71068917	     45.00000000	     45.00000000	     40.18612175	     45.00000000	  -3271.79935946	  -1240.73103358	    -90.00000000	    -86.63409220	   2152.75252599	    -98.14144471	     17.65543348	     10.58036331	     11.59708538	    -45.00000000	    -41.69588576	     45.00000000	    -45.00000000	   2249.12596329	  -2091.57114795	     19.43837988	    -56.20558189	   1446.82567203	     29.98767966	      8.13813807	    -18.37768347
      8.03000000	     28.77703458	     28.16159493	     35.00982389	    -73.01110870	    768.46383121	      9.50908489	     14.71220957	     45.00000000	     45.00000000	     39.98706326	     45.00000000	  -3271.68841947	  -1240.61807807	    -90.00000000	    -86.73363764	   2152.72619327	    -98.28448242	     17.57553991	     10.53206529	     11.68322307	    -45.00000000	    -41.81634937	     45.00000000	    -45.00000000	   2249.20666809	  -2091.71213015	     19.52913961	    -55.71633473	   1446.91255598	     29.93585772	      8.11134598	    -18.36892896
      8.04000000	     28.52058345	     28.17893896	     35.27064270	    -72.15785548	    768.59844076	      9.69047471	     14.71719925	     45.00000000	     45.00000000	     39.89053327	     45.00000000	  -3271.78019134	  -1240.54396950	    -90.00000000	    -86.79589836	   2152.81542200	    -98.49736678	     17.66807694	     10.57820972	     11.70837064	    -45.00000000	    -41.86943408	     45.00000000	    -45.00000000	   2249.18196881	  -2091.60306983	     19.49995743	    -55.34773325	   1446.86315184	     29.87877426	      8.18607639	    -18.40294166
      8.05000000	     28.65579380	     28.23069343	     35.13297916	    -71.42133062	    768.74438099	      9.86649408	     14.71029444	     45.00000000	     45.00000000	     39.86231474	     45.00000000	  -3271.59502252	  -1240.44095672	    -90.00000000	    -86.88669566	   2152.94797426	    -98.74723501	     17.54466664	     10.58508490	     11.68858250	    -45.00000000	    -41.88098543	     45.00000000	    -45.00000000	   2248.99419028	  -2091.89437186	     19.65798880	    -55.16971800	   1446.67895630	     29.83110163	      8.21539357	    -18.34859422
      8.06000000	     28.39899674	     28.29666049	     35.42987586	    -70.78756670	    768.89781647	     10.03310711	     14.72244947	     45.00000000	     45.00000000	     39.79618939	     45.00000000	  -3271.74306849	  -1240.31220543	    -90.00000000	    -87.00258518	   2153.01476723	    -99.09157435	     17.69222705	     10.64757301	     11.67880330	    -45.00000000	    -41.88444581	     45.00000000	    -45.00000000	   2249.02448800	  -2091.77512417	     19.57203934	    -54.90493277	   1446.84776066	     29.73021419	      8.24621869	    -18.42779303
      8.07000000	     28.46167593	     28.29958060	     35.40772024	    -70.25389826	    769.05502836	     10.18489781	     14.71432108	     45.00000000	     45.00000000	     39.69165837	     45.00000000	  -3271.54724737	  -1240.24096544	    -90.00000000	    -87.06144761	   2153.13510646	    -99.39161916	     17.56355179	     10.66632193	     11.69823065	    -45.00000000	    -41.90526674	     45.00000000	    -45.00000000	   2248.95231910	  -2091.98174880	     19.67847506	    -54.84205413	   1446.70991287	     29.68455196	      8.25004155	    -18.38401177
      8.08000000	     28.26118879	     28.39563811	     35.65028650	    -69.80575610	    769.21676055	     10.32165102	     14.72034932	     45.00000000	     45.00000000	     39.71199446	     45.00000000	  -3271.73281733	  -1240.12897461	    -90.00000000	    -87.16078433	   2153.22136202	    -99.73012185	     17.75896777	     10.74787392	     11.66888834	    -45.00000000	    -41.93222674	     45.00000000	    -45.00000000	   2248.92801118	  -2091.88825923	     19.57618805	    -54.72455969	   1446.84269441	     29.62112605	      8.26787933	    -18.45599597
      8.09000000	     28.32885645	     28.35938281	     35.60455963	    -69.44601841	    769.38053059	     10.44158232	     14.70940694	     45.00000000	     45.00000000	     39.55727557	     45.00000000	  -3271.48049176	  -1240.09640289	    -90.00000000	    -87.18111431	   2153.33909776	    -99.98902170	     17.58947649	     10.76498971	     11.71118330	    -45.00000000	    -41.91519286	     45.00000000	    -45.00000000	   2248.90481850	  -2092.05993642	     19.69870301	    -54.76344985	   1446.75383239	     29.61227079	      8.24468494	    -18.41762060
      8.10000000	     28.16261344	     28.51787907	     35.80428768	    -69.17307999	    769.54610554	     10.54630501	     14.71101993	     45.00000000	     45.00000000	     39.67270321	     45.00000000	  -3271.72511718	  -1239.99408266	    -90.00000000	    -87.27030924	   2153.40199665	   -100.28033950	     17.84745261	     10.84795755	     11.66466787	    -45.00000000	    -41.93273138	     45.00000000	    -45.00000000	   2248.83655908	  -2092.00734321	     19.58775418	    -54.75405655	   1446.88297188	     29.60248725	      8.24639701	    -18.48648946
      8.11000000	     28.12849467	     28.43442381	     35.83601969	    -68.99727521	    769.70722522	     10.63406042	     14.70166741	     45.00000000	     45.00000000	     39.41963948	     45.00000000	  -3271.43712824	  -1240.03894226	    -90.00000000	    -87.21371026	   2153.54234775	   -100.44871790	     17.70126545	     10.87803400	     11.71830555	    -45.00000000	    -41.95846689	     45.00000000	    -45.00000000	   2248.90861073	  -2092.05423146	     19.67155495	    -54.84574366	   1446.89344894	     29.62879101	      8.19062252	    -18.47033248
      8.12000000	     28.03982686	     28.66793181	     36.03993038	    -68.91725163	    769.86456051	     10.70747710	     14.69953037	     45.00000000	     45.00000000	     39.77389799	     45.00000000	  -3271.85875764	  -1239.92080033	    -90.00000000	    -87.31970763	   2153.58282327	   -100.64196359	     18.08725218	     10.96529514	     11.64048325	    -45.00000000	    -41.98056047	     45.00000000	    -45.00000000	   2248.78055009	  -2092.08903771	     19.50984870	    -54.89341728	   1446.94674473	     29.67128511	      8.19987958	    -18.52758804
      8.13000000	     28.04258610	     28.44832007	     35.89580228	    -68.93707520	    770.01545548	     10.76611377	     14.68723371	     45.00000000	     45.00000000	     39.26944522	     45.00000000	  -3271.37018332	  -1239.97738174	    -90.00000000	    -87.25098569	   2153.60837211	   -100.70341506	     17.77746505	     10.93280815	     11.73579538	    -45.00000000	    -41.86461406	     45.00000000	    -45.00000000	   2248.90189294	  -2092.02701282	     19.73288209	    -55.04664179	   1447.02585083	     29.72373088	      8.12105281	    -18.51491747
      8.14000000	     28.00660255	     28.63551237	     36.07141590	    -69.06260060	    770.16267802	     10.81088119	     14.67913912	     45.00000000	     45.00000000	     39.50875042	     45.00000000	  -3271.60075305	  -1239.90563954	    -90.00000000	    -87.30767134	   2153.61721968	   -100.79023745	     18.07566568	     10.98989732	     11.68078207	    -45.00000000	    -41.89294664	     45.00000000	    -45.00000000	   2248.82531446	  -2092.10235485	     19.56580027	    -55.13168171	   1447.08694479	     29.79912604	      8.12017886	    -18.56400733
